<?xml version="1.0" standalone="no"?>
<!DOCTYPE svg PUBLIC "-//W3C//DTD SVG 20010904//EN"
 "http://www.w3.org/TR/2001/REC-SVG-20010904/DTD/svg10.dtd">
<svg version="1.0" xmlns="http://www.w3.org/2000/svg"
 width="126.000000pt" height="126.000000pt" viewBox="0 0 126.000000 126.000000"
 preserveAspectRatio="xMidYMid meet">
<metadata>
Created by potrace 1.14, written by Peter Selinger 2001-2017
</metadata>
<g transform="translate(0.000000,126.000000) scale(0.100000,-0.100000)"
fill="#000000" stroke="none">
<path d="M199 1202 c-83 -90 -111 -148 -118 -251 -4 -53 -2 -103 6 -131 6 -25
12 -68 12 -97 1 -64 8 -83 32 -83 26 0 39 30 39 89 0 98 60 318 83 304 6 -4 7
-1 2 6 -9 16 47 76 95 101 57 29 198 61 298 67 72 5 107 2 158 -12 87 -23 197
-78 233 -114 43 -44 71 -142 81 -277 5 -80 12 -119 21 -125 21 -13 59 -11 60
4 1 6 2 118 3 248 l2 235 27 47 28 47 -505 0 -504 0 -53 -58z"/>
<path d="M384 1082 c-76 -43 -124 -100 -124 -148 0 -51 22 -53 66 -4 22 24 43
39 51 36 8 -3 11 -2 8 3 -5 9 22 15 105 23 40 5 44 72 5 100 -18 13 -79 8
-111 -10z"/>
<path d="M795 1090 c-4 -6 -12 -7 -18 -3 -9 5 -9 3 0 -8 8 -9 9 -19 4 -25 -5
-5 -7 -21 -4 -36 5 -26 9 -28 49 -28 60 0 107 -21 149 -67 32 -35 36 -37 51
-21 54 54 -83 198 -189 198 -20 0 -39 -5 -42 -10z"/>
<path d="M1220 943 c0 -5 9 -18 20 -28 11 -10 20 -14 20 -8 0 5 -9 18 -20 28
-11 10 -20 14 -20 8z"/>
<path d="M53 928 c-15 -19 -34 -58 -29 -58 8 0 48 61 44 66 -3 2 -10 -1 -15
-8z"/>
<path d="M789 923 c-13 -16 -12 -17 4 -4 9 7 17 15 17 17 0 8 -8 3 -21 -13z"/>
<path d="M17 853 c-4 -3 -7 -18 -6 -32 1 -26 1 -25 10 3 9 31 7 41 -4 29z"/>
<path d="M393 848 c-23 -29 -33 -59 -27 -82 5 -22 9 -23 57 -19 75 7 95 37 56
87 -22 28 -69 36 -86 14z m78 -15 c13 -16 12 -17 -3 -4 -10 7 -18 15 -18 17 0
8 8 3 21 -13z"/>
<path d="M746 845 c-9 -26 -7 -32 5 -12 6 10 9 21 6 23 -2 3 -7 -2 -11 -11z"/>
<path d="M850 846 c0 -8 -5 -18 -12 -22 -8 -5 -9 -1 -5 12 7 18 6 18 -9 -1
-10 -13 -14 -32 -10 -52 2 -17 0 -33 -5 -35 -5 -2 17 -3 48 -4 32 -1 67 -3 78
-6 11 -3 15 -3 10 -1 -6 2 -9 21 -7 42 3 30 -1 44 -17 60 -24 24 -71 28 -71 7z"/>
<path d="M6 752 c-12 -52 10 -142 35 -142 5 0 2 12 -7 26 -12 18 -17 43 -15
85 2 63 -4 77 -13 31z"/>
<path d="M800 726 c0 -2 9 -6 20 -9 11 -3 18 -1 14 4 -5 9 -34 13 -34 5z"/>
<path d="M971 727 c2 -1 13 -9 24 -17 19 -14 19 -14 6 3 -7 9 -18 17 -24 17
-6 0 -8 -1 -6 -3z"/>
<path d="M860 680 c10 -35 -9 -89 -33 -91 -6 0 -21 -2 -32 -4 -11 -2 -22 1
-26 6 -4 6 -21 0 -43 -15 -21 -14 -43 -23 -51 -20 -7 3 -16 1 -20 -5 -3 -7 0
-8 9 -5 9 3 16 1 16 -4 0 -17 -22 -62 -30 -62 -9 0 -36 61 -32 73 1 4 -6 7
-15 7 -9 0 -27 10 -40 22 -14 13 -27 18 -31 13 -8 -12 -40 -12 -64 -1 -20 9
-43 61 -33 76 5 8 -8 10 -43 8 -28 -2 -48 -6 -46 -9 2 -4 -3 -10 -12 -13 -8
-3 -24 -25 -34 -49 -52 -117 -48 -487 5 -487 10 0 15 29 20 107 9 149 21 202
52 235 15 16 32 28 38 28 6 0 49 -16 95 -36 119 -51 158 -52 272 -3 50 21 97
39 103 39 14 0 48 -36 65 -68 9 -19 28 -198 30 -284 0 -10 6 -18 14 -18 28 0
40 70 40 225 0 125 -4 162 -22 222 -24 76 -57 113 -103 113 -12 0 -31 7 -40
16 -17 16 -18 15 -9 -16z"/>
<path d="M1177 623 c-4 -3 -7 -11 -7 -17 0 -6 5 -5 12 2 6 6 9 14 7 17 -3 3
-9 2 -12 -2z"/>
<path d="M1240 595 c-8 -9 -8 -15 -2 -15 12 0 26 19 19 26 -2 2 -10 -2 -17
-11z"/>
<path d="M50 592 c0 -12 19 -26 26 -19 2 2 -2 10 -11 17 -9 8 -15 8 -15 2z"/>
<path d="M102 584 c-7 -8 -8 -14 -3 -14 10 0 25 19 20 25 -2 1 -10 -3 -17 -11z"/>
<path d="M1185 580 c3 -5 11 -10 16 -10 6 0 7 5 4 10 -3 6 -11 10 -16 10 -6 0
-7 -4 -4 -10z"/>
<path d="M371 404 c0 -11 3 -14 6 -6 3 7 2 16 -1 19 -3 4 -6 -2 -5 -13z"/>
<path d="M478 373 c6 -2 18 -2 25 0 6 3 1 5 -13 5 -14 0 -19 -2 -12 -5z"/>
<path d="M565 359 c55 -11 167 -11 185 1 10 7 -24 9 -105 9 -91 -1 -110 -3
-80 -10z"/>
<path d="M619 253 c-1 -5 -2 -25 -3 -45 -3 -35 -1 -36 18 -26 35 18 56 40 56
60 0 14 -8 18 -35 18 -19 0 -35 -3 -36 -7z"/>
<path d="M0 61 l0 -61 175 0 c169 0 175 1 175 20 0 17 -4 19 -27 14 -16 -4
-32 -7 -38 -8 -5 0 -9 16 -8 36 3 45 5 45 -154 53 l-123 7 0 -61z"/>
<path d="M1120 111 c-60 -4 -84 -10 -82 -18 1 -7 -2 -13 -8 -13 -5 0 -10 7
-10 15 0 12 -4 13 -25 3 -14 -6 -25 -14 -25 -18 0 -6 -51 -32 -130 -68 -24
-10 -24 -11 -3 -11 12 -1 25 4 28 9 4 7 12 7 25 0 32 -17 47 -11 54 21 4 19
11 29 18 26 48 -17 58 -18 58 -3 0 9 4 16 9 16 4 0 6 -11 4 -24 -5 -22 -7 -23
-35 -14 -29 10 -47 1 -48 -24 0 -5 70 -8 155 -8 l155 0 0 60 c0 59 0 60 -27
58 -16 -1 -66 -4 -113 -7z"/>
<path d="M290 70 c0 -32 2 -33 38 -24 30 9 28 21 -8 39 l-30 16 0 -31z"/>
<path d="M362 28 c3 -21 9 -23 62 -25 l59 -1 -59 24 c-32 13 -60 24 -62 24 -2
0 -2 -10 0 -22z"/>
</g>
</svg>
